<svg width="379" height="379" viewBox="0 0 379 379" fill="none" xmlns="http://www.w3.org/2000/svg">
<g clip-path="url('#clip0_1521_105')">
<path d="M59.5983 185.264L52.1724 184.66V185.295C52.1724 185.773 52.1234 186.445 52.0508 187.301L52.0499 187.311L52.0498 187.311L51.7009 190.628C51.7009 190.628 51.7009 190.628 51.7009 190.628C51.5542 192.027 51.3801 193.282 51.1398 194.371L51.0759 194.661L50.791 194.744C47.3833 195.734 44.8463 196.381 43.2142 196.672M59.5983 185.264L51.2036 190.576C51.0578 191.967 50.8859 193.201 50.6515 194.264C47.2453 195.253 44.7297 195.894 43.1255 196.18C41.5213 196.472 39.589 196.618 37.3494 196.618C36.3777 196.618 36.0597 196.581 35.4782 196.513C35.4007 196.504 35.3186 196.494 35.2297 196.484V196.987M59.5983 185.264C58.4908 187.06 58.5187 188.942 58.5448 190.694C58.5487 190.957 58.5526 191.216 58.5526 191.472V193.394C58.5526 193.83 58.597 194.395 58.687 195.084L58.6883 195.093L58.6899 195.103C58.7721 195.586 58.813 195.948 58.813 196.196C58.813 196.459 58.7351 196.673 58.5796 196.862C58.4169 197.06 58.1492 197.253 57.7365 197.42C56.9021 197.758 55.5934 197.946 53.7661 197.946H53.7012L53.6384 197.962C46.877 199.748 41.4151 200.125 35.2297 200.143M59.5983 185.264L53.7661 198.446C46.9485 200.247 41.4401 200.625 35.2297 200.643V200.143M43.2142 196.672C43.2139 196.672 43.2136 196.672 43.2134 196.672L43.1256 196.181L43.2149 196.672C43.2147 196.672 43.2144 196.672 43.2142 196.672ZM43.2142 196.672C41.5719 196.971 39.6083 197.118 37.3494 197.118C36.3475 197.118 36.0026 197.077 35.4113 197.008C35.3534 197.002 35.2931 196.995 35.2297 196.987M35.2297 196.987V200.143M35.2297 196.987C35.0835 196.971 34.9203 196.952 34.7297 196.933V200.144C34.8969 200.144 35.0635 200.144 35.2297 200.143M20.0997 198.362C18.9902 197.959 17.9694 197.51 17.0198 197.027C14.0177 195.491 11.7888 193.556 10.3084 191.228C8.82915 188.903 8.07861 186.156 8.07861 182.967C8.07861 177.407 10.4739 172.712 15.3173 168.853L15.318 168.852C18.6989 166.147 22.6265 164.177 27.0763 162.943C31.5457 161.714 37.0292 161.097 43.5369 161.097C48.9103 161.097 52.8897 161.484 55.5106 162.239C56.8218 162.616 57.7526 163.075 58.3475 163.59C58.9276 164.092 59.1828 164.639 59.1828 165.248C59.1828 165.555 59.0049 166.013 58.4898 166.645C58.0393 167.198 57.3718 167.835 56.4714 168.557C54.6304 166.891 52.1071 165.619 48.9114 164.73C45.5336 163.777 41.6008 163.31 37.1255 163.31C30.5917 163.31 25.5191 164.777 22.0197 167.795C20.2904 169.254 18.921 171.185 17.8706 173.584L17.8704 173.584C16.8253 175.979 16.2922 178.375 16.2922 180.743C16.2922 183.53 16.4658 185.723 17.3416 187.617C18.1864 189.444 19.6552 190.933 22.0916 192.432L20.0997 198.362ZM37.7333 185.639L37.7333 185.639C33.9167 188.805 32.0109 192.954 32.0109 198.05C32.0109 203.915 34.1221 208.32 38.3732 211.169L38.3742 211.169C42.0558 213.624 46.7487 214.831 52.3911 214.831C59.8676 214.831 66.2032 213.261 71.3467 210.091C71.8604 210.717 72.0474 211.18 72.0474 211.514C72.0474 211.781 71.8203 212.225 71.0189 212.845C70.2491 213.44 69.0674 214.106 67.4513 214.839C61.9843 217.285 55.7332 218.508 48.7244 218.508C41.0791 218.508 34.9869 216.872 30.398 213.636L30.3975 213.636C25.8177 210.415 23.5474 206.188 23.5474 200.951C23.5474 197.359 24.6076 194.009 26.7522 190.863L26.753 190.862C28.8774 187.726 31.8413 185.174 35.6522 183.202L35.6525 183.202C41.2063 180.323 48.2823 178.868 56.8547 178.868C61.7327 178.868 65.4537 179.258 68.0845 180.025L68.086 180.025C69.4021 180.405 70.3375 180.851 70.935 181.342C71.5188 181.822 71.7609 182.325 71.7609 182.863C71.7609 183.897 70.925 185.02 68.8412 186.171C67.0935 184.629 64.6836 183.449 61.623 182.605C58.3949 181.71 54.8023 181.269 50.8026 181.269C45.6256 181.269 41.2577 182.716 37.7333 185.639Z" fill="#00276A" stroke="#00276A"></path>
<path fill-rule="evenodd" clip-rule="evenodd" d="M104.256 190.29C103.745 188.378 102.792 186.904 101.401 185.857C100.006 184.805 98.292 184.284 96.266 184.284C94.6566 184.284 93.167 184.566 91.792 185.128C90.417 185.696 89.2035 186.514 88.1566 187.592C87.167 188.618 86.4118 189.831 85.8805 191.222C85.3493 192.607 85.0941 194.107 85.0941 195.701C85.0941 198.342 85.8753 200.451 87.443 202.045C89.016 203.639 91.0941 204.43 93.6878 204.43C96.068 204.43 98.1878 203.769 100.063 202.446C101.927 201.123 103.209 199.362 103.901 197.175H91.8493L92.3232 195.003H106.792C106.729 196.055 106.521 197.102 106.177 198.139C105.828 199.175 105.381 200.097 104.828 200.899C103.568 202.753 101.974 204.185 100.037 205.196C98.1045 206.206 96.0055 206.711 93.7191 206.711C90.3337 206.711 87.6514 205.732 85.6618 203.769C83.6774 201.816 82.6826 199.165 82.6826 195.831C82.6826 193.868 82.9899 192.05 83.6097 190.368C84.2243 188.691 85.1149 187.258 86.2764 186.06C87.5732 184.748 89.016 183.748 90.6357 183.071C92.2451 182.394 93.9847 182.055 95.8493 182.055C98.792 182.055 101.183 182.748 103.016 184.139C104.849 185.529 106.089 187.581 106.729 190.29H104.256ZM124.87 195.956C124.693 194.045 124.042 192.54 122.901 191.435C121.756 190.336 120.292 189.784 118.5 189.784C116.745 189.784 115.209 190.342 113.896 191.451C112.584 192.566 111.693 194.066 111.245 195.956H124.87ZM126.584 200.227C125.714 202.378 124.506 203.993 122.953 205.066C121.396 206.139 119.49 206.675 117.235 206.675C114.703 206.675 112.625 205.862 111.016 204.248C109.407 202.628 108.604 200.555 108.604 198.029C108.604 196.498 108.901 195.055 109.495 193.701C110.099 192.342 110.953 191.165 112.073 190.165C112.948 189.378 113.943 188.79 115.042 188.399C116.146 188.003 117.318 187.8 118.568 187.8C121.151 187.8 123.235 188.628 124.813 190.29C126.391 191.956 127.183 194.154 127.183 196.899C127.183 197.175 127.183 197.378 127.177 197.524C127.172 197.659 127.157 197.8 127.125 197.93H110.959C110.959 199.951 111.542 201.581 112.693 202.821C113.849 204.06 115.349 204.675 117.203 204.675C118.745 204.675 120.078 204.31 121.209 203.571C122.339 202.831 123.261 201.717 123.974 200.227H126.584ZM133.677 188.29L133.318 190.003C134.229 189.321 135.125 188.81 136.016 188.477C136.912 188.133 137.792 187.967 138.677 187.967C140.61 187.967 142.177 188.514 143.386 189.597C144.589 190.68 145.183 192.092 145.183 193.831C145.183 194.493 145.151 195.185 145.068 195.904C144.985 196.628 144.87 197.347 144.719 198.06L143.089 206.206H140.87L142.709 197.04C142.813 196.55 142.886 196.086 142.933 195.654C142.985 195.222 143.011 194.8 143.016 194.399C143.016 193.034 142.646 191.972 141.886 191.211C141.12 190.446 140.068 190.071 138.709 190.071C136.901 190.071 135.459 190.602 134.386 191.675C133.308 192.743 132.542 194.404 132.084 196.659L130.146 206.206H128.042L131.511 188.29H133.677ZM163.693 195.956C163.516 194.045 162.865 192.54 161.724 191.435C160.578 190.336 159.12 189.784 157.323 189.784C155.568 189.784 154.032 190.342 152.714 191.451C151.401 192.566 150.516 194.066 150.063 195.956H163.693ZM165.401 200.227C164.537 202.378 163.323 203.993 161.776 205.066C160.219 206.139 158.313 206.675 156.058 206.675C153.526 206.675 151.453 205.862 149.844 204.248C148.229 202.628 147.422 200.555 147.422 198.029C147.422 196.498 147.724 195.055 148.318 193.701C148.917 192.342 149.776 191.165 150.891 190.165C151.771 189.378 152.766 188.79 153.865 188.399C154.969 188.003 156.141 187.8 157.391 187.8C159.974 187.8 162.058 188.628 163.636 190.29C165.214 191.956 166.006 194.154 166.006 196.899C166.006 197.175 166.006 197.378 166 197.524C165.995 197.659 165.974 197.8 165.953 197.93H149.787C149.787 199.951 150.365 201.581 151.516 202.821C152.677 204.06 154.177 204.675 156.016 204.675C157.568 204.675 158.901 204.31 160.032 203.571C161.157 202.831 162.078 201.717 162.792 200.227H165.401ZM168.933 206.206H166.834L170.302 188.29H172.401L172.089 189.758C172.792 189.086 173.589 188.586 174.469 188.253C175.349 187.925 176.349 187.758 177.459 187.758H177.969L177.532 189.972H177.433C175.662 189.972 174.235 190.435 173.151 191.378C172.068 192.316 171.339 193.717 170.969 195.571L168.933 206.206ZM194.381 196.467C194.381 194.467 193.808 192.852 192.667 191.628C191.516 190.399 190.016 189.784 188.146 189.784C187.266 189.784 186.422 189.935 185.615 190.237C184.808 190.529 184.068 190.967 183.401 191.529C182.506 192.3 181.792 193.269 181.282 194.441C180.766 195.607 180.511 196.821 180.511 198.097C180.511 200.045 181.099 201.628 182.282 202.836C183.469 204.04 185.016 204.644 186.943 204.644C189.026 204.644 190.787 203.857 192.219 202.284C193.662 200.717 194.381 198.779 194.381 196.467ZM194.735 206.206H192.375L192.672 204.836C191.75 205.43 190.792 205.883 189.792 206.185C188.802 206.493 187.776 206.644 186.714 206.644C184.209 206.644 182.151 205.836 180.542 204.227C178.938 202.612 178.125 200.545 178.125 198.029C178.125 196.581 178.386 195.222 178.901 193.946C179.422 192.659 180.167 191.529 181.146 190.555C182.042 189.654 183.078 188.972 184.235 188.503C185.396 188.034 186.641 187.8 187.959 187.8C189.693 187.8 191.157 188.118 192.36 188.753C193.568 189.394 194.526 190.347 195.245 191.628L195.912 188.29H198.172L194.735 206.206ZM205.276 182.493L200.683 206.206H198.552L203.141 182.493H205.276ZM228.87 198.701C227.834 201.206 226.256 203.165 224.12 204.571C221.99 205.977 219.537 206.675 216.761 206.675C215.334 206.675 214.016 206.482 212.808 206.092C211.599 205.701 210.506 205.112 209.526 204.331C208.203 203.305 207.183 202.029 206.479 200.529C205.776 199.024 205.427 197.394 205.427 195.633C205.427 193.831 205.771 192.097 206.453 190.425C207.136 188.753 208.115 187.258 209.401 185.93C210.594 184.685 212.011 183.717 213.657 183.04C215.302 182.362 217.047 182.024 218.891 182.024C221.625 182.024 223.985 182.769 225.959 184.253C227.933 185.743 229.245 187.753 229.896 190.29H224.802C224.219 189.024 223.391 188.066 222.328 187.415C221.261 186.764 219.974 186.435 218.459 186.435C217.349 186.435 216.323 186.633 215.391 187.034C214.459 187.441 213.568 188.06 212.75 188.894C211.896 189.774 211.25 190.743 210.828 191.795C210.401 192.847 210.193 193.993 210.193 195.227C210.193 197.336 210.828 199.045 212.089 200.357C213.349 201.675 214.985 202.331 216.979 202.331C218.318 202.331 219.558 202.024 220.703 201.409C221.849 200.795 222.849 199.889 223.724 198.701H228.87ZM240.594 191.665C239.011 191.665 237.683 192.258 236.62 193.456C235.563 194.649 235.026 196.154 235.026 197.967C235.026 199.368 235.459 200.519 236.339 201.42C237.214 202.321 238.334 202.769 239.703 202.769C241.292 202.769 242.641 202.175 243.745 200.982C244.849 199.784 245.396 198.31 245.396 196.566C245.396 195.086 244.959 193.904 244.078 193.008C243.203 192.112 242.042 191.665 240.594 191.665ZM230.891 198.029C230.891 196.477 231.198 195.024 231.802 193.659C232.412 192.3 233.287 191.107 234.427 190.102C235.292 189.331 236.271 188.748 237.349 188.352C238.438 187.956 239.604 187.758 240.86 187.758C243.396 187.758 245.474 188.566 247.099 190.18C248.719 191.8 249.532 193.873 249.532 196.404C249.532 197.821 249.282 199.175 248.776 200.446C248.271 201.727 247.547 202.857 246.604 203.842C245.714 204.753 244.662 205.456 243.453 205.941C242.235 206.43 240.927 206.675 239.516 206.675C237 206.675 234.933 205.862 233.313 204.243C231.698 202.618 230.891 200.55 230.891 198.029ZM257.677 188.29L257.302 190.003C257.985 189.331 258.709 188.831 259.474 188.498C260.245 188.17 261.052 188.003 261.912 188.003C264.063 188.003 265.677 188.493 266.771 189.472C267.865 190.441 268.401 191.899 268.401 193.831C268.401 194.191 268.36 194.737 268.25 195.482C268.151 196.227 268 197.092 267.808 198.06L266.235 206.206H261.943L263.766 196.743C263.844 196.378 263.901 196.003 263.943 195.639C263.99 195.269 264.011 194.909 264.011 194.56C264.011 193.623 263.771 192.899 263.292 192.404C262.818 191.909 262.12 191.665 261.209 191.665C259.896 191.665 258.844 192.107 258.052 192.998C257.261 193.889 256.683 195.29 256.308 197.201L254.469 206.206H250.334L253.959 188.29H257.677ZM270.214 200.305H274.448V200.409C274.448 201.185 274.625 201.79 274.995 202.217C275.36 202.649 275.865 202.862 276.516 202.862C277.026 202.862 277.448 202.701 277.782 202.389C278.11 202.066 278.276 201.659 278.276 201.17C278.276 200.769 278.151 200.404 277.891 200.076C277.625 199.743 277.177 199.373 276.547 198.972C276.209 198.748 275.75 198.451 275.167 198.097C274.094 197.425 273.438 196.956 273.209 196.696C272.766 196.196 272.443 195.691 272.235 195.175C272.042 194.67 271.943 194.123 271.943 193.54C271.943 191.935 272.526 190.602 273.683 189.519C274.849 188.441 276.292 187.904 278.052 187.904C279.714 187.904 281.063 188.399 282.094 189.389C283.136 190.368 283.651 191.665 283.651 193.258V193.54L279.417 193.519C279.396 192.857 279.25 192.352 278.985 192.008C278.719 191.67 278.339 191.498 277.849 191.498C277.401 191.498 277.026 191.644 276.709 191.93C276.396 192.217 276.235 192.566 276.235 192.967C276.235 193.592 276.938 194.336 278.344 195.201C278.568 195.336 278.756 195.451 278.896 195.54C280.308 196.415 281.292 197.243 281.849 198.014C282.412 198.784 282.693 199.67 282.693 200.67C282.693 202.389 282.099 203.816 280.917 204.961C279.735 206.102 278.245 206.675 276.453 206.675C274.511 206.675 272.974 206.165 271.86 205.139C270.735 204.107 270.183 202.706 270.183 200.925C270.183 200.873 270.183 200.774 270.198 200.633C270.209 200.493 270.214 200.383 270.214 200.305ZM296.985 204.737C296.292 205.404 295.511 205.899 294.651 206.222C293.787 206.55 292.818 206.711 291.745 206.711C289.891 206.711 288.443 206.206 287.422 205.185C286.391 204.17 285.881 202.743 285.881 200.899C285.881 200.441 285.927 199.868 286.016 199.18C286.11 198.487 286.256 197.639 286.453 196.628L288.047 188.29H292.381L290.516 198.003C290.422 198.456 290.349 198.857 290.313 199.211C290.266 199.56 290.245 199.878 290.245 200.165C290.245 201.107 290.485 201.826 290.969 202.31C291.448 202.79 292.157 203.029 293.078 203.029C294.391 203.029 295.448 202.592 296.235 201.711C297.032 200.831 297.61 199.441 297.979 197.54L299.818 188.29H303.922L300.349 206.206H296.657L296.985 204.737ZM303.922 206.206L308.532 182.493H312.698L308.089 206.206H303.922ZM312.959 206.206L315.693 192.04H313.287L314.016 188.29H316.427L317.516 182.696H321.834L320.756 188.29H323.328L322.625 192.04H320.016L317.256 206.206H312.959ZM322.729 206.206L326.198 188.29H330.334L326.865 206.206H322.729ZM326.568 186.404L327.339 182.493H331.474L330.703 186.404H326.568ZM337.802 188.29L337.427 190.003C338.115 189.331 338.834 188.831 339.604 188.498C340.37 188.17 341.183 188.003 342.037 188.003C344.183 188.003 345.808 188.493 346.901 189.472C347.99 190.441 348.537 191.899 348.537 193.831C348.537 194.191 348.485 194.737 348.381 195.482C348.276 196.227 348.125 197.092 347.933 198.06L346.365 206.206H342.068L343.891 196.743C343.969 196.378 344.026 196.003 344.068 195.639C344.115 195.269 344.136 194.909 344.136 194.56C344.136 193.623 343.901 192.899 343.422 192.404C342.943 191.909 342.25 191.665 341.339 191.665C340.026 191.665 338.969 192.107 338.177 192.998C337.386 193.889 336.808 195.29 336.433 197.201L334.594 206.206H330.459L334.089 188.29H337.802ZM367.683 206.43C367.209 208.732 366.25 210.435 364.818 211.529C363.386 212.623 361.396 213.175 358.844 213.175C356.563 213.175 354.641 212.639 353.078 211.566C351.516 210.498 350.61 209.107 350.344 207.378H354.641C355.016 208.149 355.584 208.722 356.323 209.102C357.058 209.482 357.98 209.67 359.068 209.67C360.558 209.67 361.672 209.31 362.417 208.586C363.162 207.868 363.657 206.659 363.901 204.967C363.292 205.545 362.599 205.972 361.839 206.253C361.078 206.54 360.235 206.675 359.302 206.675C356.828 206.675 354.813 205.862 353.276 204.243C351.735 202.618 350.959 200.498 350.959 197.868C350.959 196.764 351.125 195.701 351.459 194.696C351.792 193.68 352.292 192.706 352.959 191.758C353.865 190.514 354.974 189.56 356.292 188.899C357.615 188.237 359.063 187.904 360.636 187.904C361.828 187.904 362.927 188.128 363.943 188.586C364.948 189.04 365.839 189.717 366.61 190.602L367.047 188.29H371.318L367.683 206.43ZM360.813 191.665C359.261 191.665 357.922 192.264 356.792 193.467C355.667 194.665 355.099 196.112 355.099 197.8C355.099 199.29 355.532 200.493 356.391 201.404C357.256 202.316 358.396 202.769 359.808 202.769C361.381 202.769 362.714 202.17 363.802 200.967C364.891 199.769 365.438 198.29 365.438 196.534C365.438 195.112 365 193.946 364.125 193.034C363.25 192.123 362.151 191.665 360.813 191.665Z" fill="#00276A"></path>
<mask id="mask0_1521_105" style="mask-type: luminance" maskUnits="userSpaceOnUse" x="0" y="0" width="379" height="379">
<path d="M0.297363 0.711426H378.563V378.977H0.297363V0.711426Z" fill="white"></path>
</mask>
<g mask="url('#mask0_1521_105')">
<path d="M0.474609 378.779H378.428V0.825908H0.474609V378.779Z" stroke="white" stroke-width="0.288"></path>
</g>
</g>
<defs>
<clipPath id="clip0_1521_105">
<rect width="120.267" height="40.267" fill="white" transform="translate(0.297363 0.711426)"></rect>
</clipPath>
</defs>
</svg>
