<svg width="29" height="29" viewBox="0 0 29 29" fill="none" xmlns="http://www.w3.org/2000/svg">
<path d="M5.63805 8.19494C5.15054 8.68245 4.76382 9.26121 4.49998 9.89817C4.23614 10.5351 4.10034 11.2178 4.10034 11.9073C4.10034 12.5967 4.23614 13.2794 4.49998 13.9164C4.76382 14.5533 5.15054 15.1321 5.63805 15.6196L14.6004 24.5819L23.5627 15.6196C24.5473 14.635 25.1004 13.2997 25.1004 11.9073C25.1004 10.5149 24.5473 9.17951 23.5627 8.19494C22.5781 7.21037 21.2428 6.65724 19.8504 6.65724C18.458 6.65724 17.1226 7.21037 16.1381 8.19494L14.6004 9.73261L13.0627 8.19494C12.5752 7.70742 11.9965 7.32071 11.3595 7.05687C10.7225 6.79302 10.0398 6.65723 9.35039 6.65723C8.66094 6.65723 7.97825 6.79302 7.34128 7.05687C6.70432 7.32071 6.12556 7.70742 5.63805 8.19494Z" stroke="#00276A" stroke-linecap="round" stroke-linejoin="round"/>
</svg>
