<svg width="26" height="26" viewBox="0 0 26 26" fill="none" xmlns="http://www.w3.org/2000/svg">
<path d="M9.40767 14.4537C9.6265 14.0161 9.75 13.5221 9.75 12.9999C9.75 12.4777 9.6265 11.9837 9.40767 11.5461M9.40767 14.4537C9.08018 15.1085 8.54122 15.6335 7.87811 15.9437C7.21499 16.2539 6.46656 16.3312 5.75407 16.1629C5.04157 15.9947 4.40675 15.5908 3.95245 15.0167C3.49815 14.4426 3.25098 13.732 3.25098 12.9999C3.25098 12.2678 3.49815 11.5572 3.95245 10.9831C4.40675 10.409 5.04157 10.0051 5.75407 9.83689C6.46656 9.66864 7.21499 9.74588 7.87811 10.0561C8.54122 10.3663 9.08018 10.8913 9.40767 11.5461M9.40767 14.4537L16.5923 18.0461M9.40767 11.5461L16.5923 7.95373M16.5923 18.0461C16.2068 18.8172 16.1433 19.71 16.416 20.5279C16.6886 21.3459 17.275 22.022 18.0462 22.4076C18.8173 22.7931 19.7101 22.8566 20.528 22.5839C21.346 22.3113 22.0221 21.7249 22.4077 20.9537C22.7933 20.1826 22.8567 19.2898 22.584 18.4719C22.3114 17.6539 21.725 16.9778 20.9538 16.5922C20.572 16.4013 20.1563 16.2875 19.7305 16.2572C19.3046 16.2269 18.877 16.2809 18.472 16.4159C17.654 16.6885 16.9779 17.2749 16.5923 18.0461ZM16.5923 7.95373C16.7833 8.3355 17.0475 8.67593 17.37 8.95558C17.6925 9.23522 18.0669 9.44861 18.4718 9.58356C18.8768 9.71851 19.3044 9.77238 19.7301 9.74209C20.1559 9.7118 20.5715 9.59795 20.9533 9.40703C21.3351 9.21611 21.6755 8.95186 21.9551 8.62938C22.2348 8.30689 22.4482 7.93249 22.5831 7.52753C22.7181 7.12258 22.7719 6.69501 22.7417 6.26924C22.7114 5.84347 22.5975 5.42784 22.4066 5.04607C22.021 4.27505 21.3449 3.68878 20.5271 3.41624C19.7093 3.14369 18.8166 3.20719 18.0456 3.59278C17.2746 3.97836 16.6883 4.65443 16.4158 5.47227C16.1433 6.29011 16.2068 7.18272 16.5923 7.95373Z" stroke="#00276A" stroke-linecap="round" stroke-linejoin="round"/>
</svg>
