<svg width="133" height="130" viewBox="0 0 133 130" fill="none" xmlns="http://www.w3.org/2000/svg">
<g clip-path="url(#clip0_1551_17)">
<path d="M133 6.29112L126.71 0.367428L121.572 0.321777L132.952 11.1593L133 6.29112Z" fill="#5EF18F"/>
<path d="M132.904 27.919L103.759 0.275391L98.6218 0.275391L132.904 32.7408V27.919Z" fill="#5EF18F"/>
<path d="M132.856 49.5476L80.8048 0.229733L75.6668 0.184082L132.804 54.3694L132.856 49.5476Z" fill="#5EF18F"/>
<path d="M132.76 71.1763L57.8575 0.137695L52.7204 0.137695L132.76 75.9981V71.1763Z" fill="#5EF18F"/>
<path d="M132.712 92.8039L34.9058 0.0454102L29.7686 0.0454102L132.664 97.6257L132.712 92.8039Z" fill="#5EF18F"/>
<path d="M132.616 114.433L11.9555 0L6.86604 0L132.618 119.255L132.616 114.433Z" fill="#5EF18F"/>
<path d="M126.134 130L0.382144 10.6997L0.334465 15.5215L120.996 129.954L126.134 130Z" fill="#5EF18F"/>
<path d="M103.183 129.908L0.287498 32.3276V37.1525L98.0449 129.908H103.183Z" fill="#5EF18F"/>
<path d="M80.2319 129.862L0.239976 53.9561L0.192322 58.7778L75.0948 129.816L80.2319 129.862Z" fill="#5EF18F"/>
<path d="M57.2808 129.771L0.143769 75.585V80.4067L52.146 129.771H57.2808Z" fill="#5EF18F"/>
<path d="M34.3296 129.678L0.0975793 97.2129L0.0499009 102.035L29.1948 129.678H34.3296Z" fill="#5EF18F"/>
<path d="M11.3794 129.632L-1.56777e-05 118.841V123.663L6.24146 129.632H11.3794Z" fill="#5EF18F"/>
</g>
<defs>
<clipPath id="clip0_1551_17">
<rect width="133" height="130" fill="white"/>
</clipPath>
</defs>
</svg>
