<svg width="272" height="296" viewBox="0 0 272 296" fill="none" xmlns="http://www.w3.org/2000/svg">
<g filter="url(#filter0_d_1566_6)">
<path opacity="0.2" d="M163.692 232.55C163.243 232.088 162.993 231.469 162.993 230.824C162.993 230.18 163.243 229.561 163.692 229.098C164.155 228.651 164.773 228.4 165.417 228.4C166.061 228.4 166.68 228.651 167.143 229.098C167.59 229.561 167.84 230.18 167.84 230.824C167.84 231.468 167.59 232.087 167.143 232.55C166.681 232.999 166.062 233.251 165.418 233.25C164.773 233.25 164.154 232.999 163.692 232.55ZM187.822 208.407C187.374 207.944 187.123 207.325 187.123 206.681C187.123 206.036 187.374 205.417 187.822 204.954C188.166 204.599 188.608 204.354 189.092 204.251C189.576 204.148 190.08 204.192 190.539 204.377C190.997 204.563 191.39 204.881 191.666 205.29C191.943 205.7 192.091 206.183 192.092 206.677C192.091 207.172 191.943 207.655 191.667 208.065C191.39 208.474 190.997 208.792 190.539 208.977C190.243 209.097 189.926 209.159 189.607 209.159C189.274 209.16 188.945 209.095 188.638 208.966C188.332 208.838 188.054 208.649 187.822 208.411V208.407ZM136.692 205.526C136.247 205.064 135.998 204.447 135.998 203.805C135.998 203.163 136.247 202.547 136.692 202.084C137.155 201.637 137.774 201.387 138.418 201.387C139.062 201.387 139.681 201.637 140.144 202.084C140.588 202.547 140.836 203.164 140.836 203.805C140.836 204.447 140.588 205.063 140.144 205.526C139.681 205.975 139.062 206.226 138.417 206.226C137.773 206.227 137.154 205.978 136.692 205.53V205.526ZM211.24 182.55C211.24 181.905 211.497 181.286 211.953 180.829C212.41 180.373 213.029 180.116 213.675 180.116C213.994 180.116 214.311 180.179 214.606 180.302C214.901 180.424 215.17 180.603 215.396 180.829C215.621 181.055 215.801 181.324 215.923 181.619C216.045 181.914 216.108 182.231 216.108 182.55C216.108 182.87 216.045 183.186 215.923 183.482C215.801 183.777 215.622 184.046 215.396 184.272C215.17 184.498 214.901 184.677 214.606 184.8C214.311 184.922 213.994 184.985 213.675 184.985C213.029 184.985 212.41 184.729 211.953 184.272C211.496 183.815 211.24 183.196 211.24 182.55ZM160.817 181.408C160.369 180.945 160.119 180.326 160.119 179.682C160.119 179.038 160.369 178.419 160.817 177.955C161.28 177.508 161.899 177.258 162.543 177.258C163.188 177.258 163.806 177.508 164.27 177.955C164.717 178.419 164.968 179.038 164.968 179.682C164.968 180.326 164.717 180.945 164.27 181.408C163.807 181.857 163.188 182.108 162.544 182.108C161.901 182.108 161.283 181.858 160.821 181.411L160.817 181.408ZM109.688 178.527C109.244 178.064 108.996 177.448 108.996 176.806C108.996 176.165 109.244 175.548 109.688 175.085C110.151 174.638 110.77 174.388 111.414 174.388C112.058 174.388 112.677 174.638 113.14 175.085C113.584 175.548 113.832 176.165 113.832 176.806C113.832 177.448 113.584 178.064 113.14 178.527C112.677 178.976 112.058 179.227 111.414 179.227C110.771 179.227 110.153 178.977 109.692 178.53L109.688 178.527ZM184.24 155.55C184.24 155.231 184.303 154.914 184.425 154.619C184.548 154.324 184.727 154.055 184.953 153.829C185.179 153.604 185.448 153.424 185.743 153.302C186.039 153.18 186.355 153.117 186.675 153.117C186.994 153.117 187.311 153.18 187.606 153.302C187.902 153.424 188.17 153.604 188.396 153.829C188.622 154.055 188.801 154.324 188.923 154.619C189.046 154.914 189.109 155.231 189.109 155.55C189.109 155.87 189.046 156.187 188.924 156.482C188.802 156.777 188.622 157.046 188.396 157.272C188.17 157.498 187.902 157.677 187.606 157.8C187.311 157.922 186.995 157.985 186.675 157.985C186.029 157.985 185.41 157.729 184.953 157.272C184.496 156.815 184.24 156.196 184.24 155.55ZM133.819 154.408C133.371 153.945 133.121 153.326 133.121 152.682C133.121 152.038 133.371 151.419 133.819 150.955C134.282 150.508 134.901 150.258 135.545 150.258C136.189 150.258 136.808 150.508 137.271 150.955C137.719 151.418 137.969 152.037 137.969 152.682C137.969 153.326 137.719 153.945 137.271 154.408C136.808 154.857 136.189 155.108 135.545 155.108C134.902 155.108 134.285 154.858 133.823 154.411L133.819 154.408ZM81.9808 149.8C81.9807 149.481 82.0435 149.164 82.1656 148.869C82.2878 148.573 82.4671 148.305 82.693 148.079C82.9189 147.853 83.1872 147.673 83.4824 147.551C83.7777 147.428 84.0942 147.365 84.4138 147.365C85.0596 147.365 85.679 147.622 86.1356 148.078C86.5923 148.535 86.8488 149.154 86.8488 149.8C86.8488 150.12 86.7858 150.437 86.6635 150.732C86.5411 151.027 86.3616 151.296 86.1355 151.522C85.9094 151.748 85.641 151.927 85.3456 152.049C85.0502 152.172 84.7335 152.234 84.4138 152.234C83.7694 152.233 83.1516 151.977 82.696 151.521C82.2405 151.066 81.9843 150.448 81.9838 149.803L81.9808 149.8ZM209.081 133.182C208.854 132.957 208.673 132.689 208.551 132.394C208.428 132.099 208.364 131.782 208.365 131.462C208.364 131.143 208.428 130.826 208.551 130.531C208.673 130.236 208.854 129.968 209.081 129.743C209.424 129.385 209.867 129.138 210.351 129.034C210.836 128.93 211.341 128.974 211.801 129.159C212.26 129.344 212.653 129.662 212.93 130.071C213.208 130.481 213.356 130.964 213.357 131.459C213.357 131.955 213.209 132.44 212.932 132.85C212.655 133.261 212.261 133.58 211.801 133.765C211.506 133.883 211.192 133.944 210.875 133.944C210.54 133.945 210.209 133.878 209.901 133.748C209.593 133.617 209.315 133.426 209.083 133.185L209.081 133.182ZM157.951 130.282C157.504 129.819 157.254 129.2 157.254 128.556C157.254 127.912 157.504 127.293 157.951 126.829C158.413 126.386 159.03 126.138 159.671 126.138C160.312 126.138 160.928 126.386 161.391 126.829C161.838 127.293 162.089 127.912 162.089 128.556C162.089 129.2 161.838 129.819 161.391 130.282C160.928 130.726 160.312 130.974 159.671 130.973C159.03 130.973 158.415 130.725 157.953 130.281L157.951 130.282ZM106.111 125.673C106.111 125.354 106.174 125.037 106.296 124.742C106.419 124.446 106.598 124.178 106.824 123.952C107.05 123.726 107.319 123.546 107.614 123.424C107.909 123.302 108.226 123.239 108.546 123.239C109.191 123.239 109.81 123.496 110.267 123.952C110.723 124.409 110.98 125.028 110.98 125.673C110.98 125.993 110.917 126.31 110.795 126.605C110.673 126.9 110.493 127.169 110.267 127.395C110.041 127.621 109.773 127.8 109.477 127.923C109.182 128.045 108.865 128.108 108.546 128.108C107.9 128.108 107.281 127.851 106.825 127.394C106.369 126.937 106.113 126.318 106.113 125.672L106.111 125.673ZM55.6898 124.493C55.2454 124.031 54.9971 123.414 54.9971 122.773C54.9971 122.131 55.2454 121.515 55.6898 121.052C56.1532 120.606 56.7717 120.356 57.4153 120.356C58.0589 120.356 58.6774 120.606 59.1407 121.052C59.5852 121.515 59.8335 122.131 59.8335 122.773C59.8335 123.414 59.5852 124.031 59.1407 124.493C58.6787 124.942 58.0599 125.193 57.4158 125.193C56.7722 125.192 56.1542 124.941 55.6927 124.492L55.6898 124.493ZM182.081 106.151C181.633 105.688 181.383 105.069 181.383 104.425C181.383 103.781 181.633 103.162 182.081 102.698C182.543 102.253 183.16 102.005 183.801 102.005C184.443 102.005 185.06 102.253 185.522 102.698C185.97 103.161 186.22 103.78 186.22 104.425C186.22 105.069 185.97 105.688 185.522 106.151C185.06 106.596 184.443 106.843 183.802 106.842C183.161 106.842 182.545 106.594 182.083 106.15L182.081 106.151ZM130.951 103.282C130.503 102.819 130.253 102.2 130.253 101.556C130.253 100.912 130.503 100.293 130.951 99.8292C131.413 99.3855 132.03 99.1378 132.671 99.1378C133.312 99.1378 133.928 99.3855 134.391 99.8292C134.838 100.293 135.088 100.912 135.088 101.556C135.088 102.2 134.838 102.819 134.391 103.282C133.928 103.726 133.312 103.974 132.671 103.973C132.03 103.973 131.415 103.725 130.953 103.281L130.951 103.282ZM79.1128 98.6752C79.1127 98.3555 79.1755 98.0389 79.2977 97.7435C79.42 97.4481 79.5993 97.1796 79.8253 96.9535C80.0513 96.7274 80.3197 96.548 80.6151 96.4256C80.9105 96.3032 81.227 96.2402 81.5468 96.2402C82.1924 96.2405 82.8115 96.4972 83.2679 96.9538C83.7244 97.4104 83.9808 98.0296 83.9808 98.6752C83.9806 99.3206 83.724 99.9394 83.2676 100.396C82.8111 100.852 82.1921 101.108 81.5468 101.108C81.2272 101.108 80.911 101.045 80.6158 100.923C80.3207 100.8 80.0525 100.621 79.8267 100.395C79.6008 100.169 79.4217 99.9006 79.2996 99.6054C79.1774 99.3101 79.1146 98.9937 79.1147 98.6742L79.1128 98.6752ZM206.2 82.0202C205.756 81.5574 205.508 80.941 205.508 80.2997C205.508 79.6585 205.756 79.0421 206.2 78.5792C206.543 78.2217 206.986 77.975 207.47 77.8709C207.955 77.7669 208.46 77.8102 208.92 77.9952C209.379 78.18 209.772 78.4976 210.049 78.9074C210.327 79.3172 210.475 79.8005 210.476 80.2952C210.475 80.79 210.326 81.2732 210.049 81.683C209.772 82.0928 209.379 82.4104 208.92 82.5952C208.625 82.7135 208.31 82.7743 207.992 82.7742C207.658 82.775 207.327 82.7085 207.02 82.5786C206.712 82.4487 206.434 82.2581 206.202 82.0182L206.2 82.0202ZM154.374 77.4202C154.374 77.1006 154.437 76.7842 154.559 76.4889C154.681 76.1937 154.861 75.9254 155.087 75.6995C155.313 75.4736 155.581 75.2944 155.876 75.1721C156.172 75.0499 156.488 74.9871 156.808 74.9872C157.453 74.9872 158.072 75.2436 158.528 75.6998C158.984 76.1561 159.241 76.775 159.241 77.4202C159.241 77.7399 159.178 78.0564 159.056 78.3518C158.934 78.6471 158.754 78.9155 158.529 79.1416C158.303 79.3677 158.034 79.5471 157.739 79.6696C157.444 79.792 157.127 79.8551 156.808 79.8552C156.163 79.8544 155.545 79.5979 155.089 79.142C154.634 78.686 154.377 78.0679 154.377 77.4232L154.374 77.4202ZM103.951 76.2782C103.503 75.8149 103.253 75.1959 103.253 74.5517C103.253 73.9076 103.503 73.2885 103.951 72.8252C104.413 72.3816 105.029 72.1339 105.67 72.1339C106.311 72.1339 106.927 72.3816 107.39 72.8252C107.838 73.2879 108.089 73.9072 108.089 74.5517C108.089 75.1963 107.838 75.8155 107.39 76.2782C106.928 76.7232 106.312 76.9713 105.671 76.9702C105.031 76.9715 104.415 76.7246 103.953 76.2812L103.951 76.2782ZM178.505 53.2892C178.505 52.9696 178.568 52.653 178.69 52.3576C178.812 52.0623 178.991 51.7939 179.217 51.5678C179.443 51.3418 179.712 51.1625 180.007 51.0402C180.303 50.918 180.619 50.8551 180.939 50.8552C181.259 50.8551 181.575 50.918 181.871 51.0402C182.166 51.1625 182.434 51.3418 182.661 51.5678C182.887 51.7938 183.066 52.0622 183.188 52.3576C183.311 52.6529 183.374 52.9695 183.374 53.2892C183.374 53.935 183.117 54.5542 182.66 55.0107C182.204 55.4673 181.585 55.724 180.939 55.7242C180.294 55.7234 179.676 55.4669 179.22 55.011C178.765 54.555 178.508 53.9369 178.508 53.2922L178.505 53.2892ZM128.082 52.1462C127.635 51.6831 127.385 51.0645 127.385 50.4207C127.385 49.777 127.635 49.1583 128.082 48.6952C128.544 48.2507 129.161 48.0024 129.803 48.0024C130.444 48.0024 131.061 48.2507 131.524 48.6952C131.971 49.1581 132.222 49.7768 132.222 50.4207C132.222 51.0647 131.971 51.6834 131.524 52.1462C131.061 52.5912 130.444 52.8396 129.803 52.8392C129.162 52.8405 128.546 52.5935 128.084 52.1502L128.082 52.1462Z" fill="white" stroke="white" stroke-width="5"/>
</g>
<defs>
<filter id="filter0_d_1566_6" x="17.4971" y="17.5024" width="236.11" height="260.248" filterUnits="userSpaceOnUse" color-interpolation-filters="sRGB">
<feFlood flood-opacity="0" result="BackgroundImageFix"/>
<feColorMatrix in="SourceAlpha" type="matrix" values="0 0 0 0 0 0 0 0 0 0 0 0 0 0 0 0 0 0 127 0" result="hardAlpha"/>
<feOffset dy="7"/>
<feGaussianBlur stdDeviation="17.5"/>
<feColorMatrix type="matrix" values="0 0 0 0 0 0 0 0 0 0 0 0 0 0 0 0 0 0 0.078 0"/>
<feBlend mode="normal" in2="BackgroundImageFix" result="effect1_dropShadow_1566_6"/>
<feBlend mode="normal" in="SourceGraphic" in2="effect1_dropShadow_1566_6" result="shape"/>
</filter>
</defs>
</svg>
