<svg width="1921" height="1359" viewBox="0 0 1921 1359" fill="none" xmlns="http://www.w3.org/2000/svg">
<g clip-path="url(#clip0_1573_9)">
<path opacity="0.49" d="M0 1093.77V221.066C0 221.066 115.211 245.878 356.96 207C598.709 168.122 788.038 84.7841 966.994 65.5501C1145.95 46.3161 1205.26 82.3121 1254.42 94.1131C1302.03 105.545 1364.69 203.336 1516.97 240.045C1664.32 275.569 1759.86 270.797 1855.04 301.853C1912.11 320.476 1920.93 372.833 1920.93 372.833L1919.63 1093.08C1919.63 1093.08 1427.61 1418.74 945.404 1418.74C463.196 1418.74 0 1093.77 0 1093.77Z" fill="url(#paint0_linear_1573_9)"/>
</g>
<defs>
<linearGradient id="paint0_linear_1573_9" x1="960.465" y1="60" x2="960.465" y2="1418.74" gradientUnits="userSpaceOnUse">
<stop stop-color="#EEECEC"/>
<stop offset="1" stop-color="white"/>
</linearGradient>
<clipPath id="clip0_1573_9">
<rect width="1920.93" height="1358.74" fill="white"/>
</clipPath>
</defs>
</svg>
